<svg width="192" height="48" xmlns="http://www.w3.org/2000/svg" fill="none">
 <defs>
  <clipPath id="clip0_2512_17757">
   <rect id="svg_1" fill="white" height="48" width="191.761"/>
  </clipPath>
  <linearGradient y2="0.14654" x2="0.85345" y1="0.85356" x1="0.14645" id="paint0_linear_2512_17757">
   <stop stop-color="#EA504C"/>
   <stop stop-color="#F7AA4E" offset="1"/>
  </linearGradient>
 </defs>
 <g>
  <title>Layer 1</title>
  <path id="svg_3" fill="#ffffff" d="m58.6094,38.323l0,-26.2751c0,-0.1505 0.1215,-0.272 0.272,-0.272l5.1584,0c0.1287,0 0.2403,0.091 0.2663,0.2175l0.6116,3.009c0.0461,0.2247 0.3345,0.2968 0.4766,0.1165c1.9052,-2.4241 4.326,-3.8455 7.6793,-3.8455c3.499,0 6.2207,1.5556 7.6404,4.3611c0.0926,0.1832 0.3391,0.208 0.4623,0.044c2.0707,-2.7449 4.7217,-4.4048 8.571,-4.4048c5.4242,0 9.0904,3.5656 9.0904,9.9945l0,17.0548c0,0.15 -0.1216,0.272 -0.272,0.272l-6.3871,0c-0.15,0 -0.2713,-0.122 -0.2713,-0.272l0,-14.8456c0,-3.7667 -1.6072,-6.0265 -4.6713,-6.0265c-2.762,0 -5.0219,2.1593 -5.0219,6.1774l0,14.6944c0,0.15 -0.1215,0.272 -0.272,0.272l-6.3871,0c-0.1499,0 -0.2712,-0.122 -0.2712,-0.272l0,-14.8456c0,-3.7666 -1.6072,-6.0265 -4.6713,-6.0265c-2.812,0 -5.0219,2.1593 -5.0219,6.1775l0,14.6944c0,0.15 -0.1215,0.272 -0.272,0.272l-6.437,0c-0.1504,0 -0.272,-0.122 -0.272,-0.272"/>
  <path id="svg_4" fill="#ffffff" d="m101.75,25.085c0,-7.9854 5.878,-13.8116 14.032,-13.8116c8.868,0 14.772,6.7556 13.591,15.3806c-0.019,0.1359 -0.143,0.2393 -0.288,0.2393l-19.493,0c-0.172,0 -0.307,0.1449 -0.286,0.3068c0.546,4.1751 2.753,6.4726 6.423,6.4726c3.154,0 5.297,-1.4357 6.186,-3.9802c0.039,-0.111 0.146,-0.1881 0.27,-0.1881l6.727,0c0.188,0 0.329,0.1714 0.279,0.3441c-1.682,5.8634 -6.549,9.1981 -13.302,9.1981c-8.473,0 -14.139,-5.5747 -14.139,-13.9613m7.964,-2.6121l11.531,0c0.167,0 0.302,-0.1366 0.288,-0.2942c-0.31,-3.5463 -2.508,-5.7827 -5.91,-5.7827c-3.348,0 -5.494,1.9962 -6.193,5.7574c-0.031,0.1659 0.107,0.3195 0.284,0.3195z"/>
  <path id="svg_5" fill="#ffffff" d="m136.308,9.66508c-2.712,0 -4.62,-1.75761 -4.62,-4.11797c0,-2.46137 1.908,-4.21898 4.62,-4.21898c2.762,0 4.671,1.75761 4.671,4.21898c0,2.36036 -1.909,4.11797 -4.671,4.11797zm-3.415,28.65652l0,-26.2751c0,-0.1505 0.122,-0.272 0.272,-0.272l6.437,0c0.15,0 0.272,0.1215 0.272,0.272l0,26.2751c0,0.1499 -0.122,0.272 -0.272,0.272l-6.437,0c-0.15,0 -0.272,-0.1221 -0.272,-0.272z"/>
  <path id="svg_6" fill="#ffffff" d="m151.541,38.5938l-6.438,0c-0.15,0 -0.271,-0.1216 -0.271,-0.272l0,-26.2751c0,-0.15 0.122,-0.272 0.271,-0.272l5.147,0c0.134,0 0.249,0.0988 0.269,0.2314l0.633,4.2216c0.037,0.2436 0.351,0.3152 0.49,0.1115c2.037,-2.9803 5.831,-4.7821 9.788,-4.8626c0.152,-0.0033 0.276,0.1221 0.276,0.2742l0,6.6646c0,0.1571 -0.134,0.2796 -0.291,0.2691c-5.765,-0.3835 -9.602,1.0727 -9.602,6.9017l0,12.7356c0,0.1504 -0.122,0.272 -0.272,0.272"/>
  <path id="svg_7" fill="#ffffff" d="m162.809,25.1848c0,-7.8345 5.954,-13.9114 13.911,-13.9114c7.957,0 13.911,6.0769 13.911,13.9114c0,7.7846 -5.954,13.9114 -13.911,13.9114c-7.957,0 -13.911,-6.1268 -13.911,-13.9114zm20.482,0c0,-4.9719 -3.029,-7.684 -6.571,-7.684c-3.542,0 -6.571,2.7121 -6.571,7.684c0,4.972 3.029,7.7342 6.571,7.7342c3.542,0 6.571,-2.762 6.571,-7.7342z"/>
  <path id="svg_8" fill="url(#paint0_linear_2512_17757)" d="m-0.81421,25.0715c0.00047,13.1898 10.69111,23.8797 23.88081,23.8804c13.1897,-0.0005 23.8797,-10.6906 23.8809,-23.8804c-0.0005,-6.6412 -2.7153,-12.6445 -7.0909,-16.97215c-0.1144,-0.11392 -0.3028,-0.10412 -0.4077,0.01886l-1.4729,1.73922c0,0 -0.1371,0.13612 -0.1485,0.29087c-0.0096,0.13373 0.1048,0.28729 0.1258,0.30902c2.8986,2.95378 4.918,6.76008 5.6578,11.00988l-5.4393,1.3899c-0.1332,0.0341 -0.2185,0.1616 -0.2008,0.2975c0.0802,0.6279 0.1234,1.2669 0.1234,1.9169c-0.0004,3.868 -1.4574,7.3801 -3.854,10.0452c-0.0927,0.1036 -0.0946,0.2583 -0.0017,0.3613l1.6573,1.8502c0.1082,0.1214 0.2995,0.1247 0.4098,0.0058c2.955,-3.1883 4.7704,-7.4465 4.8057,-12.1295l2.8019,-0.7006c0.0034,0.0021 0.0041,0.0028 0.007,0.0057c0.1564,5.989 -2.2026,11.4106 -6.1023,15.3132c-0.6784,0.6785 -1.4046,1.3079 -2.1707,1.8878l-3.6779,-4.2408c-0.0917,-0.1019 -0.2435,-0.1184 -0.3563,-0.0403c-2.4267,1.6829 -5.3669,2.6698 -8.5466,2.6703c-0.6376,0 -1.2618,-0.0489 -1.877,-0.1287c-0.1378,-0.0172 -0.2663,0.07 -0.2995,0.2049l-0.59,2.4217c-0.0383,0.1588 0.0678,0.3193 0.2299,0.342c0.8292,0.1173 1.6755,0.1793 2.5366,0.1793c2.9168,-0.0004 5.669,-0.6966 8.108,-1.9247l1.9128,2.1762c-2.9731,1.6322 -6.3852,2.5612 -10.0208,2.5622c-5.7652,-0.0012 -10.9717,-2.3329 -14.7515,-6.1104c-3.77672,-3.78 -6.10913,-8.9855 -6.10961,-14.7513c0.00048,-5.7647 2.33289,-10.9712 6.10961,-14.75076c3.7796,-3.77791 8.986,-6.10961 14.7515,-6.11033c2.4967,0 4.8884,0.43869 7.1045,1.24132l-1.1599,2.57934c-1.8622,-0.64931 -3.861,-1.00681 -5.9446,-1.00728c-5.6891,0.00047 -10.7589,2.63498 -14.06685,6.74721c-0.10173,0.1275 -0.07068,0.3169 0.06595,0.4065l4.6373,3.0562c-1.7779,2.1218 -2.8508,4.8535 -2.8513,7.8381c0.0005,0.5874 0.0444,1.1639 0.1251,1.7289c0.0244,0.1667 0.1951,0.2716 0.3563,0.2226l2.4024,-0.7295c0.1252,-0.0383 0.2037,-0.1593 0.1901,-0.2902c-0.0337,-0.3061 -0.0547,-0.6164 -0.0547,-0.9316c0.0012,-2.544 1.0269,-4.8332 2.6933,-6.5017c1.6692,-1.6671 3.9577,-2.6933 6.5024,-2.6937c2.544,0.0004 4.833,1.0266 6.5022,2.6937c1.6664,1.6688 2.6921,3.9577 2.6926,6.5017c-0.0005,2.544 -1.0262,4.8337 -2.6926,6.5025c-1.6692,1.6659 -3.9582,2.6925 -6.5022,2.6932c-2.5447,-0.0005 -4.8332,-1.0273 -6.5024,-2.6932c-0.6591,-0.6596 -1.2093,-1.4207 -1.643,-2.2527c-0.0609,-0.116 -0.193,-0.1741 -0.3181,-0.1361l-2.3979,0.7291c-0.1609,0.0489 -0.244,0.2304 -0.1724,0.3825c0.4177,0.88 0.934,1.7039 1.5408,2.4535l-1.9584,2.0473c-2.2305,-2.623 -3.57592,-6.0107 -3.5764,-9.7258c0.00048,-2.3943 0.56979,-4.6465 1.5651,-6.651c0.0609,-0.1235 0.0215,-0.272 -0.0933,-0.3477l-2.0927,-1.3672c-0.13659,-0.0893 -0.32334,-0.0415 -0.3988,0.1037c-1.27714,2.4757 -1.99952,5.2838 -1.99952,8.2622c0.00047,7.8409 5.00112,14.5084 11.98662,16.9989c0.1543,0.0551 0.3243,-0.0382 0.3637,-0.198l0.5879,-2.4131c0.0325,-0.1338 -0.041,-0.2682 -0.1695,-0.3164c-1.4519,-0.5457 -2.7974,-1.3085 -3.9971,-2.252l1.9629,-2.0523c2.0404,1.5305 4.5663,2.4478 7.3128,2.4478c6.7465,-0.0005 12.2142,-5.4682 12.2151,-12.2147c-0.0012,-6.747 -5.4689,-12.2135 -12.2151,-12.2147c-2.6386,0.0005 -5.0751,0.8459 -7.0716,2.2675l-2.5036,-1.6346c2.6015,-2.1536 5.9315,-3.44554 9.5752,-3.44673c4.154,0.00119 7.9023,1.68003 10.6273,4.40243c1.4952,1.4968 2.6744,3.3031 3.434,5.3155c0.049,0.1288 0.1827,0.2016 0.316,0.1691l2.4119,-0.5872c0.1588,-0.0382 0.2522,-0.2083 0.1968,-0.3625c-1.4916,-4.1593 -4.4626,-7.6127 -8.2844,-9.72014l1.1587,-2.57481c0.7849,0.42174 1.5367,0.89529 2.2572,1.41087c0.1148,0.08262 0.2727,0.06376 0.3641,-0.04442l1.6074,-1.89755c0.1025,-0.12131 0.0819,-0.30615 -0.0468,-0.4c-3.9412,-2.86902 -8.7938,-4.56287 -14.0427,-4.56334c-13.1897,0.00119 -23.88038,10.69179 -23.88085,23.88079"/>
 </g>
</svg>